<svg style="vertical-align: 2px;" version="1.1" id="图层_1" xmlns="http://www.w3.org/2000/svg" xmlns:xlink="http://www.w3.org/1999/xlink" x="0px" y="0px" width="106px" height="20px" viewBox="52.5 299.5 851 160" enable-background="new 52.5 299.5 851 160" xml:space="preserve" p-id="192" data-spm-anchor-id="a313x.7781069.1998910419.i1"><g id="图层_1_1_" p-id="193"><linearGradient id="SVGID_1_" gradientUnits="userSpaceOnUse" x1="856.4708" y1="619.0805" x2="885.842" y2="669.9529" gradientTransform="matrix(1 0 0 -1 0.14 999.055)" p-id="194"><stop offset="0" style="stop-color:#FFD400" p-id="195"></stop><stop offset="0.2147" style="stop-color:#FF812B" p-id="196"></stop><stop offset="0.2278" style="stop-color:#FF7C2E" p-id="197"></stop><stop offset="0.3992" style="stop-color:#FF414D" p-id="198"></stop><stop offset="0.4812" style="stop-color:#FF2A59" p-id="199"></stop><stop offset="0.6575" style="stop-color:#E52A92" p-id="200"></stop><stop offset="0.7563" style="stop-color:#D82AAD" p-id="201"></stop><stop offset="0.8483" style="stop-color:#C82AD2" p-id="202"></stop><stop offset="0.9463" style="stop-color:#B92AF2" p-id="203"></stop><stop offset="1" style="stop-color:#B32AFF" p-id="204"></stop></linearGradient><polygon id="J_index_jia" mx-click="showVideo()" data-spm-click="gostr=/alimama.30;locaid=d82d0f1df" fill="url(#SVGID_1_)" points="899.463,344.582 881.253,344.582 881.253,326.372 861.34,326.372 861.34,344.582
            843.13,344.582 843.13,364.495 861.34,364.495 861.34,382.705 881.253,382.705 881.253,364.495 899.463,364.495" p-id="205"></polygon><rect x="56.919" y="344.412" fill="#FFFFFF" width="22.955" height="109.768" p-id="206"></rect><path fill="#FFFFFF" d="M203.636,414.162l0.216-1.438h-23.128l-0.255,0.915c-2.099,7.525-5.419,13.257-9.871,17.036
            c-4.477,3.802-10.018,5.65-16.939,5.65c-10.064,0-17.596-3.179-23.023-9.719c-5.41-6.514-8.153-15.993-8.153-28.174
            c0-11.146,2.8-19.971,8.322-26.228c5.558-6.301,13.034-9.363,22.854-9.363c6.941,0,12.621,1.796,17.363,5.491
            c4.736,3.693,7.822,8.861,9.434,15.798l0.226,0.97h23.142l-0.183-1.411c-1.57-12.176-6.86-21.88-15.724-28.842
            c-8.821-6.925-20.347-10.437-34.258-10.437c-17.283,0-30.979,5.032-40.71,14.958c-9.724,9.921-14.654,23.968-14.654,41.75
            c0,16.908,4.94,30.189,14.683,39.475c9.723,9.271,23.539,13.971,41.065,13.971c8.438,0,16.183-1.42,23.021-4.219
            c6.823-2.793,12.602-6.908,17.176-12.229c0.363-0.382,0.562-0.618,0.741-0.874l0.242-0.304c0.05-0.055,0.105-0.113,0.166-0.173
            l0.245-0.281c2.282-2.923,4.042-6.159,5.173-9.548C201.911,423.615,202.863,419.317,203.636,414.162z" p-id="207"></path><path fill="#FFFFFF" d="M313.294,359.076c-9.669-9.73-23.139-14.664-40.032-14.664c-16.896,0-30.397,4.933-40.127,14.662
            c-9.729,9.729-14.662,23.359-14.662,40.511c0,17.027,4.934,30.561,14.665,40.224c9.725,9.664,23.225,14.564,40.124,14.564
            c16.897,0,30.366-4.9,40.031-14.565c9.665-9.667,14.565-23.2,14.565-40.223C327.859,382.438,322.959,368.808,313.294,359.076z
             M295.705,426.519c-5.302,6.471-12.643,9.616-22.442,9.616c-9.808,0-17.183-3.118-22.547-9.532
            c-5.344-6.384-8.055-15.475-8.055-27.018c0-11.666,2.71-20.822,8.056-27.212c5.366-6.413,12.741-9.53,22.546-9.53
            c9.552,0,16.835,3.088,22.266,9.441c5.404,6.329,8.144,15.256,8.144,26.533C303.671,410.741,300.991,420.062,295.705,426.519z" p-id="208"></path><path fill="#FFFFFF" d="M392.591,363.652c8.739,0,15.423,2.729,19.867,8.108c3.419,4.141,5.302,9.829,5.302,16.02v66.91h22.844
            v-72.705c0-20.436-17.434-37.062-38.862-37.062c-16.15,0-26.244,6.854-29.834,9.802l-4.989,4.075v-13.391h-22.844v109.28h23.028
            v-66.91c0-5.865,1.993-11.627,5.468-15.811C377.091,366.528,384.015,363.652,392.591,363.652z" p-id="209" data-spm-anchor-id="a313x.7781069.1998910419.i6"></path><path fill="#FFFFFF" d="M507.663,344.499h-19.655v-10.695c0-5.876,4.419-8.95,8.784-8.95h11.072v-18.45h-22.155
            c-10.077,0-20.5,7.858-20.5,21.008V344.5h-15.312v19.879h14.775v89.802h22.844v-89.802h20.148L507.663,344.499L507.663,344.499z" p-id="210"></path><path fill="#FFFFFF" d="M608.415,359.076c-9.669-9.73-23.139-14.664-40.032-14.664c-16.896,0-30.397,4.933-40.127,14.662
            c-9.729,9.729-14.662,23.359-14.662,40.511c0,17.027,4.934,30.561,14.665,40.224c9.725,9.664,23.225,14.564,40.124,14.564
            c16.897,0,30.366-4.9,40.031-14.565c9.665-9.667,14.565-23.2,14.565-40.223C622.979,382.438,618.079,368.808,608.415,359.076z
             M590.825,426.519c-5.302,6.471-12.643,9.616-22.442,9.616c-9.808,0-17.183-3.118-22.547-9.532
            c-5.344-6.384-8.055-15.475-8.055-27.018c0-11.666,2.71-20.822,8.056-27.212c5.366-6.413,12.741-9.53,22.546-9.53
            c9.552,0,16.835,3.088,22.266,9.441c5.404,6.329,8.144,15.256,8.144,26.533C598.791,410.741,596.111,420.062,590.825,426.519z" p-id="211"></path><path fill="#FFFFFF" d="M783.458,454.174l19.36-0.007v-17.648h-8.994c-4.891,0-8.579-3.657-8.579-8.507v-63.634h17.572v-19.779
            h-17.572v-22.638h-22.652v22.638H745.05v19.779h17.543v69.43C762.594,443.603,770.571,454.174,783.458,454.174z" p-id="212"></path><path fill="#FFFFFF" d="M684.591,363.652c8.739,0,15.423,2.729,19.867,8.108c3.419,4.141,5.302,9.829,5.302,16.02v66.91h22.844
            v-72.705c0-20.436-17.434-37.062-38.862-37.062c-16.15,0-26.244,6.854-29.834,9.802l-4.989,4.075v-13.391h-22.844v109.28h23.028
            v-66.91c0-5.865,1.993-11.627,5.468-15.811C669.091,366.528,676.015,363.652,684.591,363.652z" p-id="213"></path></g></svg>